<?xml version="1.0" standalone="no"?>
<!DOCTYPE svg PUBLIC "-//W3C//DTD SVG 20010904//EN"
 "http://www.w3.org/TR/2001/REC-SVG-20010904/DTD/svg10.dtd">
<svg version="1.0" xmlns="http://www.w3.org/2000/svg"
 width="260.000000pt" height="260.000000pt" viewBox="0 0 260.000000 260.000000"
 preserveAspectRatio="xMidYMid meet">
<metadata>
Created by potrace 1.11, written by Peter Selinger 2001-2013
</metadata>
<g transform="translate(0.000000,260.000000) scale(0.100000,-0.100000)"
fill="#000000" stroke="none">
<path d="M1135 2545 c-49 -30 -114 -67 -142 -82 -29 -14 -53 -30 -53 -35 0 -4
-7 -8 -15 -8 -8 0 -15 -4 -15 -9 0 -5 -21 -22 -47 -37 -27 -15 -51 -31 -54
-36 -3 -5 -15 -11 -25 -12 -10 -2 -19 -7 -19 -12 0 -5 -10 -22 -21 -39 -49
-69 -79 -173 -89 -305 -3 -36 -13 -101 -22 -145 -20 -97 -20 -140 1 -190 21
-50 20 -65 -4 -65 -37 0 -44 -36 -25 -130 7 -37 67 -170 76 -170 5 0 6 -6 3
-14 -3 -8 4 -31 16 -53 14 -25 18 -30 14 -13 -3 14 -10 29 -15 35 -5 5 -9 15
-9 23 0 12 3 12 18 1 14 -11 15 -11 5 1 -18 20 -16 30 5 24 14 -5 14 -4 2 4
-8 6 -18 8 -23 5 -5 -3 -7 3 -4 13 3 11 8 29 12 42 4 13 2 22 -4 22 -6 0 -11
-14 -11 -32 0 -38 -16 -27 -24 17 -3 17 -12 60 -19 97 -8 37 -12 70 -9 73 3 2
-1 11 -8 20 -10 13 -9 15 8 15 12 0 23 -4 27 -10 3 -5 11 -7 18 -4 18 6 64
-31 82 -66 18 -34 27 -82 14 -75 -5 4 -9 13 -9 21 0 8 -4 14 -8 14 -5 0 -8
-10 -8 -22 1 -15 -4 -22 -13 -20 -17 4 -31 -16 -24 -35 4 -9 11 -6 24 12 19
23 54 25 46 2 -2 -7 2 -22 9 -35 7 -14 10 -30 7 -37 -2 -7 3 -27 12 -44 9 -18
13 -36 10 -40 -3 -5 -1 -20 4 -33 5 -13 5 -33 -1 -48 -6 -17 -5 -27 4 -35 13
-10 60 -134 57 -151 -4 -23 2 -45 11 -39 5 3 10 2 10 -3 0 -5 27 -36 59 -68
79 -78 111 -106 111 -97 0 4 5 2 11 -4 6 -6 18 -9 27 -6 9 4 13 2 9 -4 -7 -10
19 -28 36 -25 4 1 7 -4 7 -10 0 -12 128 -59 158 -58 6 0 12 -4 12 -9 0 -6 12
-6 32 -1 17 5 36 6 42 2 21 -16 137 3 168 27 13 10 35 21 49 24 14 4 46 28 70
54 23 27 54 56 68 66 l26 18 -30 -6 c-24 -4 -26 -4 -9 4 17 8 91 110 85 119
-1 1 10 24 24 52 14 27 27 60 29 72 3 13 5 23 6 23 5 0 11 62 15 154 2 59 11
119 19 135 7 17 16 71 20 119 3 49 8 93 11 98 3 4 -3 14 -15 21 -28 18 -25 52
9 102 35 50 54 114 52 177 0 29 9 71 25 110 34 83 39 235 11 317 -47 142 -207
212 -492 216 -125 2 -132 4 -192 35 -100 52 -122 51 -228 -14z m38 -934 c3
-14 0 -17 -14 -14 -22 6 -25 19 -6 26 6 3 13 6 13 6 1 1 4 -7 7 -18z m112 13
c13 -5 14 -8 3 -15 -19 -13 -28 -11 -28 6 0 17 2 18 25 9z m380 -4 c3 -5 -3
-10 -15 -10 -12 0 -18 5 -15 10 3 6 10 10 15 10 5 0 12 -4 15 -10z m105 6 c0
-3 -4 -8 -10 -11 -5 -3 -10 -1 -10 4 0 6 5 11 10 11 6 0 10 -2 10 -4z m-1135
-179 c4 -28 12 -60 17 -71 7 -12 7 -16 0 -12 -6 3 -15 21 -20 39 -15 48 -22
108 -12 102 4 -3 11 -29 15 -58z"/>
<path d="M890 881 c0 -6 4 -13 10 -16 6 -3 7 1 4 9 -7 18 -14 21 -14 7z"/>
<path d="M895 840 c3 -5 8 -10 11 -10 2 0 4 5 4 10 0 6 -5 10 -11 10 -5 0 -7
-4 -4 -10z"/>
<path d="M899 818 c0 -2 -2 -28 -3 -58 -5 -90 -34 -135 -95 -146 -49 -10 -91
-28 -120 -53 -13 -12 -30 -21 -38 -21 -8 0 -12 -4 -9 -9 3 -5 -5 -20 -19 -33
-23 -24 -24 -28 -14 -84 28 -154 60 -224 167 -367 l36 -47 63 0 64 0 -78 88
c-105 119 -199 309 -178 359 4 10 10 27 12 38 6 31 40 61 106 94 82 40 114 90
115 179 0 34 -2 62 -4 62 -2 0 -4 -1 -5 -2z"/>
<path d="M1790 650 c6 -11 15 -20 21 -20 6 0 6 7 -1 20 -6 11 -15 20 -21 20
-6 0 -6 -7 1 -20z"/>
<path d="M1830 612 c0 -4 24 -23 53 -42 77 -52 91 -87 90 -230 0 -142 -22
-219 -86 -302 l-29 -38 60 0 c58 0 61 1 82 35 12 19 23 41 24 48 2 6 6 19 9
27 18 51 26 118 22 210 -2 58 -6 114 -8 125 -3 11 -8 33 -12 49 -5 18 -4 31 4
36 9 5 8 9 -4 13 -9 4 -13 3 -10 -3 3 -6 -1 -10 -9 -10 -10 0 -13 6 -9 15 3 9
2 15 -3 14 -5 -1 -16 1 -24 4 -66 27 -150 55 -150 49z"/>
<path d="M592 515 c-37 -20 -50 -39 -15 -21 17 9 35 20 38 26 7 12 7 12 -23
-5z"/>
<path d="M2060 520 c0 -5 5 -10 11 -10 5 0 7 5 4 10 -3 6 -8 10 -11 10 -2 0
-4 -4 -4 -10z"/>
<path d="M2100 500 c8 -5 20 -10 25 -10 6 0 3 5 -5 10 -8 5 -19 10 -25 10 -5
0 -3 -5 5 -10z"/>
<path d="M2147 479 c7 -7 15 -10 18 -7 3 3 -2 9 -12 12 -14 6 -15 5 -6 -5z"/>
<path d="M2187 459 c7 -7 15 -10 18 -7 3 3 -2 9 -12 12 -14 6 -15 5 -6 -5z"/>
<path d="M2225 449 c-3 -4 2 -6 10 -5 21 3 28 13 10 13 -9 0 -18 -4 -20 -8z"/>
<path d="M2330 423 c1 -10 60 -89 60 -80 0 11 -23 48 -42 69 -10 10 -18 15
-18 11z"/>
</g>
</svg>
